# xmcd
#
# Track frame offsets:
#	150
#	16292
#	31079
#	46555
#	62263
#	77929
#	92144
#	106204
#	120861
#	134492
#	148893
#	166977
#	183528
#	196932
#	211559
#	225420
#	240803
#	267055
#
# Disc length: 3566 seconds
#
# Revision: 0
# Processed by: cddbd v1.4PL0 Copyright (c) Steve Scherf et al.
# Submitted via: audiograbber 1.81.02
#
DISCID=d60dec12
DTITLE=John Dean - Always on my mind... Disc 2
DYEAR=2002
DGENRE=Country
TTITLE0=Heartbreak hotel
TTITLE1=She's not you
TTITLE2=King Creole
TTITLE3=Don't
TTITLE4=Goodluck Charm
TTITLE5=Wooden Heart
TTITLE6=Gotta lot of living to do
TTITLE7=Falling in love
TTITLE8=G.I. Blues
TTITLE9=Return to centre
TTITLE10=Elvis Medley
TTITLE11=Love me tender
TTITLE12=Jim said hello
TTITLE13=Stuck on You
TTITLE14=Devil in disquise
TTITLE15=Didya ever
TTITLE16=Blue Christmas
TTITLE17=Data Track
EXTD=
EXTT0=
EXTT1=
EXTT2=
EXTT3=
EXTT4=
EXTT5=
EXTT6=
EXTT7=
EXTT8=
EXTT9=
EXTT10=
EXTT11=
EXTT12=
EXTT13=
EXTT14=
EXTT15=
EXTT16=
EXTT17=
PLAYORDER=
